<?xml version="1.0" encoding="utf-8"?>
<!-- Generator: Adobe Illustrator 23.0.0, SVG Export Plug-In . SVG Version: 6.00 Build 0)  -->
<svg version="1.1" id="Layer_1" xmlns="http://www.w3.org/2000/svg" xmlns:xlink="http://www.w3.org/1999/xlink" x="0px" y="0px"
	 viewBox="0 0 2000 1300" style="enable-background:new 0 0 2000 1300;" xml:space="preserve">
<style type="text/css">
	.st0{fill:#FFFFFF;}
	.st1{fill:url(#SVGID_1_);}
	.st2{fill:url(#SVGID_2_);}
	.st3{fill:url(#SVGID_3_);}
</style>
<rect class="st0" width="2000" height="1300"/>
<linearGradient id="SVGID_1_" gradientUnits="userSpaceOnUse" x1="0" y1="650" x2="2000" y2="650">
	<stop  offset="0" style="stop-color:#00A2D9"/>
	<stop  offset="1" style="stop-color:#2BB673"/>
</linearGradient>
<path class="st1" d="M2000,1300H0V0c488.51,382.6,810.71,413.08,1017,366.14c135.42-30.81,321.27-117.83,635.14-136.29
	c147.43-8.67,269,0.97,347.86,10.29C2000,593.43,2000,946.71,2000,1300z"/>
<linearGradient id="SVGID_2_" gradientUnits="userSpaceOnUse" x1="1598.7535" y1="679.75" x2="2000" y2="679.75">
	<stop  offset="0" style="stop-color:#00A2D9"/>
	<stop  offset="1" style="stop-color:#2BB673"/>
</linearGradient>
<path class="st2" d="M2000,531.6l-57.13-66.53c-12.34-14.37-31.41-21.07-50.02-17.57l-187.63,35.29
	c-18.62,3.5-33.95,16.67-40.22,34.54l-63.25,180.13c-6.28,17.87-2.54,37.73,9.8,52.11l124.38,144.84
	c12.34,14.37,31.41,21.07,50.02,17.57l187.63-35.29c10.08-1.9,19.19-6.65,26.43-13.43V531.6z"/>
<linearGradient id="SVGID_3_" gradientUnits="userSpaceOnUse" x1="1135.2858" y1="170.7143" x2="1135.2858" y2="170.7143">
	<stop  offset="0" style="stop-color:#00A2D9"/>
	<stop  offset="1" style="stop-color:#00A651"/>
</linearGradient>
<path class="st3" d="M1135.29,170.71"/>
</svg>
